<?xml version="1.0" encoding="utf-8"?>
<!-- Generator: Adobe Illustrator 27.2.0, SVG Export Plug-In . SVG Version: 6.00 Build 0)  -->
<svg version="1.1" id="Calque_1" xmlns="http://www.w3.org/2000/svg" xmlns:xlink="http://www.w3.org/1999/xlink" x="0px" y="0px"
	 viewBox="0 0 250 141" style="enable-background:new 0 0 250 141;" xml:space="preserve">
<style type="text/css">
	.st0{fill:#78F39E;}
	.st1{fill:#2C7155;}
</style>
<path class="st0" d="M140.6,81.8H113c-4.1,0-7.4-3.3-7.4-7.4V59.2h35V81.8z"/>
<path class="st1" d="M85,75.2c0.3,0,0.6,0.1,0.9,0.2l2.3,1.2c0.1,0.1,0.3,0.1,0.4,0.1c0.3,0,0.4-0.2,0.4-0.6l-0.5-2.6
	c-0.1-0.5,0.2-1.3,0.5-1.7l1.8-1.8c0.4-0.4,0.3-0.8-0.3-0.8l-2.8-0.4c-0.5-0.1-1.2-0.6-1.4-1.1l-0.9-2.2c-0.1-0.3-0.3-0.4-0.4-0.4
	s-0.3,0.1-0.4,0.4l-1.1,2.3c-0.2,0.5-0.9,1-1.4,1l-2.5,0.4c-0.5,0.1-0.7,0.5-0.3,0.8l1.8,1.8c0.4,0.4,0.6,1.1,0.5,1.7L81.2,76
	c-0.1,0.4,0.1,0.6,0.4,0.6c0.1,0,0.2,0,0.4-0.1l2.3-1.2C84.4,75.3,84.7,75.2,85,75.2z"/>
<path class="st1" d="M96,48.9l-2.9-0.4c-0.5-0.1-1.2-0.5-1.4-1.1l-0.9-2.2c-0.1-0.3-0.3-0.4-0.4-0.4s-0.3,0.1-0.4,0.4l-1.1,2.3
	c-0.2,0.5-0.9,1-1.4,1L85,48.9c-0.5,0.1-0.7,0.5-0.3,0.8l1.8,1.8c0.4,0.4,0.6,1.1,0.5,1.7l-0.4,2.5c-0.1,0.4,0.1,0.6,0.4,0.6
	c0.1,0,0.2,0,0.4-0.1l2.3-1.2c0.2-0.1,0.6-0.2,0.9-0.2c0.3,0,0.6,0.1,0.9,0.2l2.3,1.2c0.1,0.1,0.3,0.1,0.4,0.1
	c0.3,0,0.4-0.2,0.4-0.6l-0.4-2.5c-0.1-0.5,0.2-1.3,0.5-1.7l1.8-1.8C96.6,49.4,96.5,49,96,48.9z"/>
<path class="st1" d="M101,36.5c0.4,0.4,0.6,1.1,0.5,1.7l-0.4,2.5c-0.1,0.4,0.1,0.6,0.4,0.6c0.1,0,0.2,0,0.4-0.1l2.3-1.2
	c0.2-0.1,0.6-0.2,0.9-0.2c0.3,0,0.6,0.1,0.9,0.2l2.3,1.2c0.1,0.1,0.3,0.1,0.4,0.1c0.3,0,0.4-0.2,0.4-0.6l-0.4-2.5
	c-0.1-0.5,0.2-1.3,0.5-1.7l1.8-1.8c0.4-0.4,0.3-0.8-0.3-0.8l-3-0.4c-0.5-0.1-1.2-0.5-1.4-1.1l-0.9-2.2c-0.1-0.3-0.3-0.4-0.4-0.4
	s-0.3,0.1-0.4,0.4l-1.2,2.3c-0.2,0.5-0.9,1-1.4,1l-2.5,0.4c-0.5,0.1-0.7,0.5-0.3,0.8L101,36.5z"/>
<path class="st1" d="M121.3,31.2c0.4,0.4,0.6,1.1,0.5,1.7l-0.4,2.5c-0.1,0.4,0.1,0.6,0.4,0.6c0.1,0,0.2,0,0.4-0.1l2.3-1.2
	c0.2-0.1,0.6-0.2,0.9-0.2s0.6,0.1,0.9,0.2l2.3,1.2c0.1,0.1,0.3,0.1,0.4,0.1c0.3,0,0.4-0.2,0.4-0.6l-0.4-2.5
	c-0.1-0.5,0.2-1.3,0.5-1.7l1.8-1.8c0.4-0.4,0.3-0.8-0.3-0.8l-3-0.4c-0.5-0.1-1.2-0.5-1.4-1.1l-0.9-2.2c-0.1-0.3-0.3-0.4-0.4-0.4
	c-0.1,0-0.3,0.1-0.4,0.4l-1.1,2.3c-0.2,0.5-0.9,1-1.4,1l-2.6,0.3c-0.5,0.1-0.7,0.5-0.3,0.8L121.3,31.2z"/>
<path class="st1" d="M150.8,34.2l-2.8-0.3c-0.5-0.1-1.2-0.5-1.4-1.1l-0.9-2.2c-0.1-0.3-0.3-0.4-0.4-0.4c-0.1,0-0.3,0.1-0.4,0.4
	l-1.1,2.3c-0.2,0.5-0.9,1-1.4,1l-2.5,0.4c-0.5,0.1-0.7,0.5-0.3,0.8l1.8,1.8c0.4,0.4,0.6,1.1,0.5,1.7l-0.4,2.5
	c-0.1,0.4,0.1,0.6,0.4,0.6c0.1,0,0.2,0,0.4-0.1l2.3-1.2c0.2-0.1,0.6-0.2,0.9-0.2s0.6,0.1,0.9,0.2l2.3,1.2c0.1,0.1,0.3,0.1,0.4,0.1
	c0.3,0,0.4-0.2,0.4-0.6l-0.8-2.6c-0.1-0.5,0.2-1.3,0.5-1.7L151,35C151.5,34.7,151.4,34.3,150.8,34.2z"/>
<path class="st1" d="M156,51.6c0.4,0.4,0.6,1.1,0.5,1.7l-0.4,2.5c-0.1,0.4,0.1,0.6,0.4,0.6c0.1,0,0.2,0,0.4-0.1l2.3-1.2
	c0.2-0.1,0.6-0.2,0.9-0.2s0.6,0.1,0.9,0.2l2.3,1.2c0.1,0.1,0.3,0.1,0.4,0.1c0.3,0,0.4-0.2,0.4-0.6l-0.4-2.5
	c-0.1-0.5,0.2-1.3,0.5-1.7l1.8-1.8c0.4-0.4,0.3-0.8-0.3-0.8l-2.8-0.4c-0.5-0.1-1.2-0.5-1.4-1.1l-0.9-2.2c-0.1-0.3-0.3-0.4-0.4-0.4
	c-0.1,0-0.3,0.1-0.4,0.4l-1.1,2.3c-0.2,0.5-0.9,1-1.4,1l-2.5,0.4c-0.5,0.1-0.7,0.5-0.3,0.8L156,51.6z"/>
<path class="st1" d="M170.7,69.1l-2.8-0.4c-0.5-0.1-1.2-0.5-1.4-1.1l-0.9-2.2c-0.1-0.3-0.3-0.4-0.4-0.4c-0.1,0-0.3,0.1-0.4,0.4
	l-1.1,2.3c-0.2,0.5-0.9,1-1.4,1l-2.5,0.4c-0.5,0.1-0.7,0.5-0.3,0.8l1.8,1.8c0.4,0.4,0.6,1.1,0.5,1.7l-0.4,2.5
	c-0.1,0.4,0.1,0.6,0.4,0.6c0.1,0,0.2,0,0.4-0.1l2.3-1.2c0.2-0.1,0.6-0.2,0.9-0.2c0.3,0,0.6,0.1,0.9,0.2l2.3,1.2
	c0.1,0.1,0.3,0.1,0.4,0.1c0.3,0,0.4-0.2,0.4-0.6l-0.4-2.5c-0.1-0.5,0.2-1.3,0.5-1.7l1.8-1.8C171.4,69.5,171.3,69.2,170.7,69.1z"/>
<path class="st1" d="M165.5,89.2l-2.8-0.4c-0.5-0.1-1.2-0.5-1.4-1.1l-0.9-2.2c-0.1-0.3-0.3-0.4-0.4-0.4c-0.1,0-0.3,0.1-0.4,0.4
	l-1.1,2.3c-0.2,0.5-0.9,1-1.4,1l-2.5,0.4c-0.5,0.1-0.7,0.5-0.3,0.8l1.8,1.8c0.4,0.4,0.6,1.1,0.5,1.7l-0.4,2.5
	c-0.1,0.4,0.1,0.6,0.4,0.6c0.1,0,0.2,0,0.4-0.1l2.3-1.2c0.2-0.1,0.6-0.2,0.9-0.2c0.3,0,0.6,0.1,0.9,0.2l2.3,1.2
	c0.1,0.1,0.3,0.1,0.4,0.1c0.3,0,0.4-0.2,0.4-0.6l-0.8-2.5c-0.1-0.5,0.2-1.3,0.5-1.7l1.8-1.8C166.2,89.7,166.1,89.3,165.5,89.2z"/>
<path class="st1" d="M150.6,104l-2.8-0.4c-0.5-0.1-1.2-0.6-1.4-1.1l-0.9-2.2c-0.1-0.3-0.3-0.4-0.4-0.4s-0.3,0.1-0.4,0.4l-1.1,2.3
	c-0.2,0.5-0.9,1-1.4,1l-2.5,0.4c-0.5,0.1-0.7,0.5-0.3,0.8l1.8,1.8c0.4,0.4,0.6,1.1,0.5,1.7l-0.4,2.5c-0.1,0.4,0.1,0.6,0.4,0.6
	c0.1,0,0.2,0,0.4-0.1l2.3-1.2c0.2-0.1,0.6-0.2,0.9-0.2c0.3,0,0.6,0.1,0.9,0.2l2.3,1.2c0.1,0.1,0.3,0.1,0.4,0.1
	c0.3,0,0.4-0.2,0.4-0.6l-0.4-2.5c-0.1-0.5,0.2-1.3,0.5-1.7l1.8-1.8C151.3,104.5,151.2,104.1,150.6,104z"/>
<path class="st1" d="M130.4,109.3l-2.8-0.4c-0.5-0.1-1.2-0.5-1.4-1.1l-0.9-2.2c-0.1-0.3-0.3-0.4-0.4-0.4s-0.3,0.1-0.4,0.4l-1.1,2.3
	c-0.2,0.5-0.9,1-1.4,1l-2.5,0.4c-0.5,0.1-0.7,0.5-0.3,0.8l1.8,1.8c0.4,0.4,0.6,1.1,0.5,1.7l-0.4,2.5c-0.1,0.4,0.1,0.6,0.4,0.6
	c0.1,0,0.2,0,0.4-0.1l2.3-1.2c0.2-0.1,0.6-0.2,0.9-0.2c0.3,0,0.6,0.1,0.9,0.2l2.3,1.2c0.1,0.1,0.3,0.1,0.4,0.1
	c0.3,0,0.4-0.2,0.4-0.6l-0.4-2.5c-0.1-0.5,0.2-1.3,0.5-1.7l1.8-1.8C131,109.8,130.9,109.4,130.4,109.3z"/>
<path class="st1" d="M110.3,104.2l-2.8-0.4c-0.5-0.1-1.2-0.6-1.4-1.1l-0.9-2.2c-0.1-0.3-0.3-0.4-0.4-0.4c-0.1,0-0.3,0.1-0.4,0.4
	l-1.1,2.3c-0.2,0.5-0.9,1-1.4,1l-2.5,0.4c-0.5,0.1-0.7,0.5-0.3,0.8l1.8,1.8c0.4,0.4,0.6,1.1,0.5,1.7L101,111
	c-0.1,0.4,0.1,0.6,0.4,0.6c0.1,0,0.2,0,0.4-0.1l2.3-1.2c0.2-0.1,0.6-0.2,0.9-0.2s0.6,0.1,0.9,0.2l2.1,1.2c0.1,0.1,0.3,0.1,0.4,0.1
	c0.3,0,0.4-0.2,0.4-0.6l-0.4-2.5c-0.1-0.5,0.2-1.3,0.5-1.7l1.8-1.8C111,104.6,110.9,104.2,110.3,104.2z"/>
<path class="st1" d="M95.4,89.3l-2.8-0.4c-0.5-0.1-1.2-0.5-1.4-1.1l-0.9-2.2c-0.1-0.3-0.3-0.4-0.4-0.4s-0.3,0.1-0.4,0.4l-1.1,2.3
	c-0.2,0.5-0.9,1-1.4,1l-2.5,0.4c-0.5,0.1-0.7,0.5-0.3,0.8l1.8,1.8c0.4,0.4,0.6,1.1,0.5,1.7l-0.4,2.5c-0.1,0.4,0.1,0.6,0.4,0.6
	c0.1,0,0.2,0,0.4-0.1l2.3-1.2c0.2-0.1,0.6-0.2,0.9-0.2c0.3,0,0.6,0.1,0.9,0.2l2.3,1.2c0.1,0.1,0.3,0.1,0.4,0.1
	c0.3,0,0.4-0.2,0.4-0.6l-0.4-2.5c-0.1-0.5,0.2-1.3,0.5-1.7l1.8-1.8C96.1,89.7,96,89.3,95.4,89.3z"/>
<path class="st1" d="M121.1,59.6c0-0.8-0.6-1.4-1.4-1.4c-0.8,0-1.4,0.6-1.4,1.4v16.2c0,2.8-2.2,5-5,5c-2.8,0-5-2.2-5-5V59.6
	c0-0.8-0.6-1.4-1.4-1.4c-0.8,0-1.4,0.6-1.4,1.4v16.2c0,4.3,3.5,7.8,7.8,7.8c4.3,0,7.8-3.5,7.8-7.8V59.6z"/>
<path class="st1" d="M141.5,60.8c0.8,0,1.4-0.6,1.4-1.4c0-0.8-0.6-1.4-1.4-1.4h-12.1c-0.8,0-1.4,0.6-1.4,1.4v22.7
	c0,0.8,0.6,1.4,1.4,1.4h12.2c0.8,0,1.4-0.6,1.4-1.4c0-0.8-0.6-1.4-1.4-1.4h-10.8v-9h8.7c0.8,0,1.4-0.6,1.4-1.4
	c0-0.8-0.6-1.4-1.4-1.4h-8.7v-8h10.7V60.8z"/>
</svg>
